<?xml version="1.0" encoding="utf-8"?><svg version="1.1" id="Layer_1" xmlns="http://www.w3.org/2000/svg" xmlns:xlink="http://www.w3.org/1999/xlink" x="0px" y="0px" viewBox="0 0 122.88 107.27" style="enable-background:new 0 0 122.88 107.27" xml:space="preserve"><g><path d="M22.48,0h77.92c6.15,0,11.75,2.53,15.82,6.6c4.11,4.11,6.67,9.8,6.67,16.06v61.96c0,6.26-2.55,11.94-6.67,16.06 c-4.07,4.07-9.67,6.6-15.82,6.6H22.48c-6.15,0-11.75-2.53-15.82-6.6C2.55,96.56,0,90.88,0,84.62V22.65 c0-6.26,2.55-11.95,6.66-16.06C10.73,2.53,16.33,0,22.48,0L22.48,0z M42.84,66.46V28.62h19.48c3.61,0,6.38,0.31,8.28,0.93 c1.91,0.62,3.45,1.77,4.62,3.44c1.17,1.68,1.75,3.73,1.75,6.15c0,2.1-0.45,3.91-1.35,5.43c-0.89,1.53-2.12,2.77-3.7,3.72 c-1,0.6-2.37,1.1-4.1,1.5c1.39,0.47,2.4,0.92,3.04,1.39c0.42,0.31,1.05,0.98,1.87,1.99c0.81,1.01,1.36,1.8,1.63,2.35l5.68,10.93 H66.83l-6.24-11.54c-0.79-1.5-1.5-2.47-2.11-2.92c-0.85-0.58-1.81-0.87-2.87-0.87h-1.03v15.33H42.84L42.84,66.46z M54.57,44h4.94 c0.53,0,1.57-0.18,3.1-0.52c0.77-0.15,1.41-0.55,1.89-1.19c0.49-0.64,0.74-1.37,0.74-2.2c0-1.22-0.39-2.17-1.16-2.82 c-0.78-0.66-2.23-0.99-4.37-0.99h-5.14V44L54.57,44z M4.54,76.22c0.78,3.18,2.34,6.02,4.44,8.29c3.09,3.33,7.35,5.4,12.05,5.4 h80.83c0.19,0,0.38,0,0.57-0.01l1.15-0.08c4.01-0.44,7.62-2.39,10.33-5.31c2.1-2.26,3.65-5.11,4.44-8.28V22.65 c0-4.85-2-9.28-5.21-12.49c-3.26-3.26-7.76-5.28-12.73-5.28H22.48c-4.97,0-9.48,2.02-12.73,5.28c-3.22,3.22-5.21,7.64-5.21,12.49 V76.22L4.54,76.22z"/></g></svg>