<svg xmlns="http://www.w3.org/2000/svg" xmlns:xlink="http://www.w3.org/1999/xlink" version="1.1" width="1000" height="1000" viewBox="0 0 1000 1000" xml:space="preserve">
<desc>Created with Fabric.js 3.5.0</desc>
<defs>
</defs>
<rect x="0" y="0" width="100%" height="100%" fill="#ffffff"/>
<g transform="matrix(1 0 0 1 500 290.615)" style="" id="568909">
		
<path xml:space="preserve" font-family="Lato" font-size="71" font-style="normal" font-weight="bold" style="stroke: none; stroke-width: 1; stroke-dasharray: none; stroke-linecap: butt; stroke-dashoffset: 0; stroke-linejoin: miter; stroke-miterlimit: 4; is-custom-font: none; font-file-url: none; fill: rgb(0,0,0); fill-rule: nonzero; opacity: 1; white-space: pre;" d="M-70.37 2.25L-74.46 2.25L-74.46 22.30L-84.00 22.30L-84.00-29.03L-68.35-29.03Q-63.10-29.03-59.35-27.95Q-55.60-26.86-53.21-24.91Q-50.81-22.96-49.69-20.24Q-48.58-17.53-48.58-14.26L-48.58-14.26Q-48.58-11.67-49.34-9.36Q-50.10-7.05-51.54-5.17Q-52.98-3.29-55.09-1.87Q-57.20-0.45-59.90 0.40L-59.90 0.40Q-58.09 1.43-56.78 3.35L-56.78 3.35L-43.93 22.30L-52.52 22.30Q-53.76 22.30-54.63 21.81Q-55.50 21.31-56.10 20.39L-56.10 20.39L-66.89 3.95Q-67.50 3.03-68.23 2.64Q-68.95 2.25-70.37 2.25L-70.37 2.25ZM-74.46-21.65L-74.46-4.61L-68.49-4.61Q-65.79-4.61-63.79-5.28Q-61.78-5.95-60.49-7.14Q-59.19-8.33-58.55-9.97Q-57.91-11.60-57.91-13.55L-57.91-13.55Q-57.91-17.46-60.49-19.55Q-63.06-21.65-68.35-21.65L-68.35-21.65L-74.46-21.65ZM-37.75-14.12L-28.98-14.12L-28.98 22.30L-37.75 22.30L-37.75-14.12ZM-27.67-24.73L-27.67-24.73Q-27.67-23.60-28.13-22.60Q-28.59-21.61-29.35-20.86Q-30.12-20.12-31.15-19.67Q-32.17-19.23-33.35-19.23L-33.35-19.23Q-34.48-19.23-35.49-19.67Q-36.51-20.12-37.25-20.86Q-38.00-21.61-38.44-22.60Q-38.88-23.60-38.88-24.73L-38.88-24.73Q-38.88-25.91-38.44-26.93Q-38.00-27.96-37.25-28.71Q-36.51-29.46-35.49-29.90Q-34.48-30.34-33.35-30.34L-33.35-30.34Q-32.17-30.34-31.15-29.90Q-30.12-29.46-29.35-28.71Q-28.59-27.96-28.13-26.93Q-27.67-25.91-27.67-24.73ZM-7.11 22.87L-7.11 22.87Q-11.83 22.87-14.39 20.19Q-16.95 17.51-16.95 12.79L-16.95 12.79L-16.95-7.55L-20.64-7.55Q-21.35-7.55-21.86-8.01Q-22.38-8.47-22.38-9.40L-22.38-9.40L-22.38-12.88L-16.52-13.84L-14.67-23.78Q-14.53-24.49-14.02-24.88Q-13.50-25.27-12.72-25.27L-12.72-25.27L-8.18-25.27L-8.18-13.80L1.41-13.80L1.41-7.55L-8.18-7.55L-8.18 12.19Q-8.18 13.89-7.32 14.85Q-6.47 15.81-5.05 15.81L-5.05 15.81Q-4.24 15.81-3.69 15.61Q-3.14 15.42-2.73 15.20Q-2.32 14.99-2.00 14.80Q-1.68 14.60-1.36 14.60L-1.36 14.60Q-0.97 14.60-0.72 14.80Q-0.47 14.99-0.19 15.38L-0.19 15.38L2.44 19.64Q0.52 21.24-1.96 22.06Q-4.45 22.87-7.11 22.87ZM41.10-14.12L26.65 22.30L18.70 22.30L4.21-14.12L11.49-14.12Q12.45-14.12 13.11-13.66Q13.76-13.20 14.01-12.49L14.01-12.49L21.04 6.97Q21.64 8.67 22.05 10.30Q22.46 11.94 22.78 13.57L22.78 13.57Q23.10 11.94 23.51 10.30Q23.92 8.67 24.55 6.97L24.55 6.97L31.76-12.49Q32.01-13.20 32.65-13.66Q33.29-14.12 34.17-14.12L34.17-14.12L41.10-14.12ZM46.85-14.12L55.62-14.12L55.62 22.30L46.85 22.30L46.85-14.12ZM56.93-24.73L56.93-24.73Q56.93-23.60 56.47-22.60Q56.01-21.61 55.24-20.86Q54.48-20.12 53.45-19.67Q52.42-19.23 51.25-19.23L51.25-19.23Q50.11-19.23 49.10-19.67Q48.09-20.12 47.35-20.86Q46.60-21.61 46.16-22.60Q45.71-23.60 45.71-24.73L45.71-24.73Q45.71-25.91 46.16-26.93Q46.60-27.96 47.35-28.71Q48.09-29.46 49.10-29.90Q50.11-30.34 51.25-30.34L51.25-30.34Q52.42-30.34 53.45-29.90Q54.48-29.46 55.24-28.71Q56.01-27.96 56.47-26.93Q56.93-25.91 56.93-24.73ZM65.63-30.45L74.40-30.45L74.40-0.24L76.03-0.24Q76.92-0.24 77.41-0.49Q77.91-0.74 78.48-1.41L78.48-1.41L87.53-12.59Q88.13-13.30 88.81-13.71Q89.48-14.12 90.58-14.12L90.58-14.12L98.61-14.12L87.28-0.59Q86.68 0.15 86.04 0.77Q85.40 1.39 84.66 1.86L84.66 1.86Q85.40 2.39 85.97 3.10Q86.54 3.81 87.11 4.62L87.11 4.62L99.25 22.30L91.33 22.30Q90.30 22.30 89.59 21.95Q88.88 21.59 88.31 20.74L88.31 20.74L79.05 6.93Q78.51 6.12 77.98 5.87Q77.45 5.62 76.38 5.62L76.38 5.62L74.40 5.62L74.40 22.30L65.63 22.30L65.63-30.45Z"/></g>
</svg>